<mxfile host="app.diagrams.net" modified="2021-02-27T13:59:49.047Z" agent="5.0 (Windows NT 10.0; Win64; x64) AppleWebKit/537.36 (KHTML, like Gecko) Chrome/88.0.4324.190 Safari/537.36" etag="WsRU3hIoInlKMAdcS7l8" version="14.4.2" type="github">
  <diagram id="wmGiJ1GPSNAI0xUi6mqc" name="Page-1">
    <mxGraphModel dx="904" dy="393" grid="1" gridSize="10" guides="1" tooltips="1" connect="1" arrows="1" fold="1" page="1" pageScale="1" pageWidth="827" pageHeight="1169" math="0" shadow="0">
      <root>
        <mxCell id="0" />
        <mxCell id="1" parent="0" />
        <mxCell id="AAILQi1pVG8GvYkLA8IR-47" value="&lt;div style=&quot;text-align: left&quot;&gt;&lt;b style=&quot;font-size: 14px&quot;&gt;Sistema de Senhas&lt;/b&gt;&lt;/div&gt;&lt;font style=&quot;font-size: 14px&quot;&gt;&lt;div style=&quot;text-align: left&quot;&gt;&lt;b&gt;Diagrama de Atividades&lt;/b&gt;&lt;/div&gt;&lt;/font&gt;" style="text;html=1;strokeColor=none;fillColor=none;align=center;verticalAlign=middle;whiteSpace=wrap;rounded=0;" vertex="1" parent="1">
          <mxGeometry x="420" y="80" width="460" height="40" as="geometry" />
        </mxCell>
        <mxCell id="AAILQi1pVG8GvYkLA8IR-48" value="Sistema de Senhas" style="swimlane;html=1;childLayout=stackLayout;resizeParent=1;resizeParentMax=0;startSize=20;" vertex="1" parent="1">
          <mxGeometry x="280" y="140" width="770" height="850" as="geometry" />
        </mxCell>
        <mxCell id="AAILQi1pVG8GvYkLA8IR-49" value="Cliente" style="swimlane;html=1;startSize=20;" vertex="1" parent="AAILQi1pVG8GvYkLA8IR-48">
          <mxGeometry y="20" width="190" height="830" as="geometry" />
        </mxCell>
        <mxCell id="AAILQi1pVG8GvYkLA8IR-50" value="" style="ellipse;html=1;shape=startState;fillColor=#000000;strokeColor=#ff0000;" vertex="1" parent="AAILQi1pVG8GvYkLA8IR-49">
          <mxGeometry x="70" y="30" width="30" height="30" as="geometry" />
        </mxCell>
        <mxCell id="AAILQi1pVG8GvYkLA8IR-51" value="Escolher &lt;br&gt;Fila" style="rounded=1;whiteSpace=wrap;html=1;arcSize=40;fontColor=#000000;fillColor=#ffffc0;strokeColor=#ff0000;" vertex="1" parent="AAILQi1pVG8GvYkLA8IR-49">
          <mxGeometry x="25" y="90" width="120" height="40" as="geometry" />
        </mxCell>
        <mxCell id="AAILQi1pVG8GvYkLA8IR-52" value="" style="rounded=0;orthogonalLoop=1;jettySize=auto;html=1;" edge="1" parent="AAILQi1pVG8GvYkLA8IR-49" source="AAILQi1pVG8GvYkLA8IR-50" target="AAILQi1pVG8GvYkLA8IR-51">
          <mxGeometry relative="1" as="geometry">
            <mxPoint x="85" y="100" as="targetPoint" />
          </mxGeometry>
        </mxCell>
        <mxCell id="AAILQi1pVG8GvYkLA8IR-53" value="Retirar Cupom" style="rounded=1;whiteSpace=wrap;html=1;arcSize=40;fontColor=#000000;fillColor=#ffffc0;strokeColor=#ff0000;" vertex="1" parent="AAILQi1pVG8GvYkLA8IR-49">
          <mxGeometry x="25" y="230" width="120" height="40" as="geometry" />
        </mxCell>
        <mxCell id="AAILQi1pVG8GvYkLA8IR-54" value="Visualizar Painel" style="rounded=1;whiteSpace=wrap;html=1;arcSize=40;fontColor=#000000;fillColor=#ffffc0;strokeColor=#ff0000;" vertex="1" parent="AAILQi1pVG8GvYkLA8IR-49">
          <mxGeometry x="25" y="300" width="120" height="40" as="geometry" />
        </mxCell>
        <mxCell id="AAILQi1pVG8GvYkLA8IR-92" value="" style="edgeStyle=none;rounded=0;orthogonalLoop=1;jettySize=auto;html=1;entryX=0.5;entryY=0;entryDx=0;entryDy=0;exitX=0.5;exitY=1;exitDx=0;exitDy=0;" edge="1" parent="AAILQi1pVG8GvYkLA8IR-49" source="AAILQi1pVG8GvYkLA8IR-53" target="AAILQi1pVG8GvYkLA8IR-54">
          <mxGeometry relative="1" as="geometry">
            <mxPoint x="255" y="260" as="sourcePoint" />
            <mxPoint x="155" y="260" as="targetPoint" />
          </mxGeometry>
        </mxCell>
        <mxCell id="AAILQi1pVG8GvYkLA8IR-55" value="Sistema" style="swimlane;html=1;startSize=20;" vertex="1" parent="AAILQi1pVG8GvYkLA8IR-48">
          <mxGeometry x="190" y="20" width="220" height="830" as="geometry" />
        </mxCell>
        <mxCell id="AAILQi1pVG8GvYkLA8IR-56" value="Atualizar Movimentos" style="rounded=1;whiteSpace=wrap;html=1;arcSize=40;fontColor=#000000;fillColor=#ffffc0;strokeColor=#ff0000;" vertex="1" parent="AAILQi1pVG8GvYkLA8IR-55">
          <mxGeometry x="55" y="90" width="120" height="40" as="geometry" />
        </mxCell>
        <mxCell id="AAILQi1pVG8GvYkLA8IR-59" value="Imprimir Cupom" style="rounded=1;whiteSpace=wrap;html=1;arcSize=40;fontColor=#000000;fillColor=#ffffc0;strokeColor=#ff0000;" vertex="1" parent="AAILQi1pVG8GvYkLA8IR-55">
          <mxGeometry x="55" y="230" width="120" height="40" as="geometry" />
        </mxCell>
        <mxCell id="AAILQi1pVG8GvYkLA8IR-61" value="Exibir Painel" style="rounded=1;whiteSpace=wrap;html=1;arcSize=40;fontColor=#000000;fillColor=#ffffc0;strokeColor=#ff0000;" vertex="1" parent="AAILQi1pVG8GvYkLA8IR-55">
          <mxGeometry x="50" y="300" width="120" height="40" as="geometry" />
        </mxCell>
        <mxCell id="AAILQi1pVG8GvYkLA8IR-83" value="" style="shape=line;html=1;strokeWidth=6;strokeColor=#ff0000;" vertex="1" parent="AAILQi1pVG8GvYkLA8IR-55">
          <mxGeometry x="55" y="180" width="120" height="10" as="geometry" />
        </mxCell>
        <mxCell id="AAILQi1pVG8GvYkLA8IR-89" value="" style="edgeStyle=none;rounded=0;orthogonalLoop=1;jettySize=auto;html=1;exitX=0.5;exitY=1;exitDx=0;exitDy=0;entryX=0.5;entryY=0.6;entryDx=0;entryDy=0;entryPerimeter=0;" edge="1" parent="AAILQi1pVG8GvYkLA8IR-55" source="AAILQi1pVG8GvYkLA8IR-56" target="AAILQi1pVG8GvYkLA8IR-83">
          <mxGeometry relative="1" as="geometry">
            <mxPoint x="290" y="330" as="sourcePoint" />
            <mxPoint x="180" y="330" as="targetPoint" />
          </mxGeometry>
        </mxCell>
        <mxCell id="AAILQi1pVG8GvYkLA8IR-91" value="" style="edgeStyle=none;rounded=0;orthogonalLoop=1;jettySize=auto;html=1;entryX=0.5;entryY=0;entryDx=0;entryDy=0;" edge="1" parent="AAILQi1pVG8GvYkLA8IR-55" source="AAILQi1pVG8GvYkLA8IR-83" target="AAILQi1pVG8GvYkLA8IR-59">
          <mxGeometry relative="1" as="geometry">
            <mxPoint x="135" y="150" as="sourcePoint" />
            <mxPoint x="135" y="206" as="targetPoint" />
          </mxGeometry>
        </mxCell>
        <mxCell id="AAILQi1pVG8GvYkLA8IR-62" value="" style="edgeStyle=none;rounded=0;orthogonalLoop=1;jettySize=auto;html=1;" edge="1" parent="AAILQi1pVG8GvYkLA8IR-48" source="AAILQi1pVG8GvYkLA8IR-51" target="AAILQi1pVG8GvYkLA8IR-56">
          <mxGeometry relative="1" as="geometry" />
        </mxCell>
        <mxCell id="AAILQi1pVG8GvYkLA8IR-63" value="" style="edgeStyle=none;rounded=0;orthogonalLoop=1;jettySize=auto;html=1;" edge="1" parent="AAILQi1pVG8GvYkLA8IR-48" source="AAILQi1pVG8GvYkLA8IR-59" target="AAILQi1pVG8GvYkLA8IR-53">
          <mxGeometry relative="1" as="geometry" />
        </mxCell>
        <mxCell id="AAILQi1pVG8GvYkLA8IR-65" value="" style="edgeStyle=none;rounded=0;orthogonalLoop=1;jettySize=auto;html=1;" edge="1" parent="AAILQi1pVG8GvYkLA8IR-48" source="AAILQi1pVG8GvYkLA8IR-61" target="AAILQi1pVG8GvYkLA8IR-54">
          <mxGeometry relative="1" as="geometry" />
        </mxCell>
        <mxCell id="AAILQi1pVG8GvYkLA8IR-90" value="" style="edgeStyle=none;rounded=0;orthogonalLoop=1;jettySize=auto;html=1;exitX=1;exitY=0.5;exitDx=0;exitDy=0;entryX=0;entryY=0.25;entryDx=0;entryDy=0;exitPerimeter=0;" edge="1" parent="AAILQi1pVG8GvYkLA8IR-48" source="AAILQi1pVG8GvYkLA8IR-83" target="AAILQi1pVG8GvYkLA8IR-67">
          <mxGeometry relative="1" as="geometry">
            <mxPoint x="315" y="160" as="sourcePoint" />
            <mxPoint x="315" y="216" as="targetPoint" />
          </mxGeometry>
        </mxCell>
        <mxCell id="AAILQi1pVG8GvYkLA8IR-93" value="" style="edgeStyle=none;rounded=0;orthogonalLoop=1;jettySize=auto;html=1;entryX=0;entryY=0.5;entryDx=0;entryDy=0;exitX=0.5;exitY=1;exitDx=0;exitDy=0;" edge="1" parent="AAILQi1pVG8GvYkLA8IR-48" source="AAILQi1pVG8GvYkLA8IR-54" target="AAILQi1pVG8GvYkLA8IR-68">
          <mxGeometry relative="1" as="geometry">
            <mxPoint x="250" y="350" as="sourcePoint" />
            <mxPoint x="155" y="350" as="targetPoint" />
            <Array as="points">
              <mxPoint x="85" y="430" />
            </Array>
          </mxGeometry>
        </mxCell>
        <mxCell id="AAILQi1pVG8GvYkLA8IR-66" value="Atendente" style="swimlane;html=1;startSize=20;" vertex="1" parent="AAILQi1pVG8GvYkLA8IR-48">
          <mxGeometry x="410" y="20" width="360" height="830" as="geometry" />
        </mxCell>
        <mxCell id="AAILQi1pVG8GvYkLA8IR-67" value="Exibir Senhas" style="rounded=1;whiteSpace=wrap;html=1;arcSize=40;fontColor=#000000;fillColor=#ffffc0;strokeColor=#ff0000;" vertex="1" parent="AAILQi1pVG8GvYkLA8IR-66">
          <mxGeometry x="60" y="180" width="120" height="40" as="geometry" />
        </mxCell>
        <mxCell id="AAILQi1pVG8GvYkLA8IR-68" value="Cliente compareceu?" style="rhombus;whiteSpace=wrap;html=1;fillColor=#ffffc0;strokeColor=#ff0000;" vertex="1" parent="AAILQi1pVG8GvYkLA8IR-66">
          <mxGeometry x="62.5" y="380" width="105" height="70" as="geometry" />
        </mxCell>
        <mxCell id="AAILQi1pVG8GvYkLA8IR-69" value="Iniciar Atendimento" style="rounded=1;whiteSpace=wrap;html=1;arcSize=40;fontColor=#000000;fillColor=#ffffc0;strokeColor=#ff0000;" vertex="1" parent="AAILQi1pVG8GvYkLA8IR-66">
          <mxGeometry x="55" y="490" width="120" height="40" as="geometry" />
        </mxCell>
        <mxCell id="AAILQi1pVG8GvYkLA8IR-70" value="Sim" style="edgeStyle=none;rounded=0;orthogonalLoop=1;jettySize=auto;html=1;entryX=0.5;entryY=0;entryDx=0;entryDy=0;" edge="1" parent="AAILQi1pVG8GvYkLA8IR-66" source="AAILQi1pVG8GvYkLA8IR-68" target="AAILQi1pVG8GvYkLA8IR-69">
          <mxGeometry relative="1" as="geometry">
            <mxPoint x="115" y="520" as="targetPoint" />
          </mxGeometry>
        </mxCell>
        <mxCell id="AAILQi1pVG8GvYkLA8IR-71" value="" style="ellipse;html=1;shape=endState;fillColor=#000000;strokeColor=#ff0000;" vertex="1" parent="AAILQi1pVG8GvYkLA8IR-66">
          <mxGeometry x="160" y="800" width="30" height="30" as="geometry" />
        </mxCell>
        <mxCell id="AAILQi1pVG8GvYkLA8IR-80" value="Excedeu limite de chamadas?" style="rhombus;whiteSpace=wrap;html=1;fillColor=#ffffc0;strokeColor=#ff0000;" vertex="1" parent="AAILQi1pVG8GvYkLA8IR-66">
          <mxGeometry x="230" y="380" width="115" height="70" as="geometry" />
        </mxCell>
        <mxCell id="AAILQi1pVG8GvYkLA8IR-76" value="Não" style="edgeStyle=none;rounded=0;orthogonalLoop=1;jettySize=auto;html=1;entryX=0;entryY=0.5;entryDx=0;entryDy=0;" edge="1" parent="AAILQi1pVG8GvYkLA8IR-66" source="AAILQi1pVG8GvYkLA8IR-68" target="AAILQi1pVG8GvYkLA8IR-80">
          <mxGeometry relative="1" as="geometry">
            <mxPoint x="220" y="420" as="targetPoint" />
            <Array as="points">
              <mxPoint x="190" y="415" />
              <mxPoint x="240" y="415" />
            </Array>
          </mxGeometry>
        </mxCell>
        <mxCell id="AAILQi1pVG8GvYkLA8IR-57" value="" style="shape=line;html=1;strokeWidth=6;strokeColor=#ff0000;" vertex="1" parent="AAILQi1pVG8GvYkLA8IR-66">
          <mxGeometry x="120" y="760" width="120" height="10" as="geometry" />
        </mxCell>
        <mxCell id="AAILQi1pVG8GvYkLA8IR-82" value="Sim" style="edgeStyle=none;rounded=0;orthogonalLoop=1;jettySize=auto;html=1;exitX=0.5;exitY=1;exitDx=0;exitDy=0;entryX=0.75;entryY=0;entryDx=0;entryDy=0;" edge="1" parent="AAILQi1pVG8GvYkLA8IR-66" source="AAILQi1pVG8GvYkLA8IR-80" target="AAILQi1pVG8GvYkLA8IR-86">
          <mxGeometry x="0.0303" relative="1" as="geometry">
            <mxPoint x="290" y="700" as="targetPoint" />
            <Array as="points" />
            <mxPoint x="177.5" y="425" as="sourcePoint" />
            <mxPoint x="1" as="offset" />
          </mxGeometry>
        </mxCell>
        <mxCell id="AAILQi1pVG8GvYkLA8IR-84" value="" style="edgeStyle=none;rounded=0;orthogonalLoop=1;jettySize=auto;html=1;entryX=0.5;entryY=0;entryDx=0;entryDy=0;exitX=0.458;exitY=0.8;exitDx=0;exitDy=0;exitPerimeter=0;" edge="1" parent="AAILQi1pVG8GvYkLA8IR-66" source="AAILQi1pVG8GvYkLA8IR-57" target="AAILQi1pVG8GvYkLA8IR-71">
          <mxGeometry relative="1" as="geometry">
            <mxPoint x="177" y="775" as="targetPoint" />
            <mxPoint x="132.7037037037037" y="660" as="sourcePoint" />
          </mxGeometry>
        </mxCell>
        <mxCell id="AAILQi1pVG8GvYkLA8IR-86" value="Finalizar sem Atender" style="rounded=1;whiteSpace=wrap;html=1;arcSize=40;fontColor=#000000;fillColor=#ffffc0;strokeColor=#ff0000;" vertex="1" parent="AAILQi1pVG8GvYkLA8IR-66">
          <mxGeometry x="200" y="610" width="120" height="40" as="geometry" />
        </mxCell>
        <mxCell id="AAILQi1pVG8GvYkLA8IR-87" value="" style="edgeStyle=none;rounded=0;orthogonalLoop=1;jettySize=auto;html=1;entryX=0.75;entryY=0.5;entryDx=0;entryDy=0;entryPerimeter=0;exitX=0.5;exitY=1;exitDx=0;exitDy=0;" edge="1" parent="AAILQi1pVG8GvYkLA8IR-66" source="AAILQi1pVG8GvYkLA8IR-86" target="AAILQi1pVG8GvYkLA8IR-57">
          <mxGeometry relative="1" as="geometry">
            <mxPoint x="177" y="775" as="targetPoint" />
            <mxPoint x="132.7037037037037" y="660" as="sourcePoint" />
          </mxGeometry>
        </mxCell>
        <mxCell id="AAILQi1pVG8GvYkLA8IR-72" value="" style="edgeStyle=none;rounded=0;orthogonalLoop=1;jettySize=auto;html=1;" edge="1" parent="1" source="AAILQi1pVG8GvYkLA8IR-73" target="AAILQi1pVG8GvYkLA8IR-61">
          <mxGeometry relative="1" as="geometry" />
        </mxCell>
        <mxCell id="AAILQi1pVG8GvYkLA8IR-73" value="Chamar Senha" style="rounded=1;whiteSpace=wrap;html=1;arcSize=40;fontColor=#000000;fillColor=#ffffc0;strokeColor=#ff0000;" vertex="1" parent="1">
          <mxGeometry x="750" y="460" width="120" height="40" as="geometry" />
        </mxCell>
        <mxCell id="AAILQi1pVG8GvYkLA8IR-74" value="" style="edgeStyle=none;rounded=0;orthogonalLoop=1;jettySize=auto;html=1;" edge="1" parent="1" source="AAILQi1pVG8GvYkLA8IR-67" target="AAILQi1pVG8GvYkLA8IR-73">
          <mxGeometry relative="1" as="geometry" />
        </mxCell>
        <mxCell id="AAILQi1pVG8GvYkLA8IR-75" value="" style="edgeStyle=none;rounded=0;orthogonalLoop=1;jettySize=auto;html=1;entryX=0.5;entryY=0;entryDx=0;entryDy=0;exitX=0.45;exitY=0.975;exitDx=0;exitDy=0;exitPerimeter=0;" edge="1" parent="1" source="AAILQi1pVG8GvYkLA8IR-73" target="AAILQi1pVG8GvYkLA8IR-68">
          <mxGeometry relative="1" as="geometry">
            <mxPoint x="820" y="390" as="sourcePoint" />
            <mxPoint x="820" y="470" as="targetPoint" />
          </mxGeometry>
        </mxCell>
        <mxCell id="AAILQi1pVG8GvYkLA8IR-77" value="" style="edgeStyle=none;rounded=0;orthogonalLoop=1;jettySize=auto;html=1;entryX=0.25;entryY=0.5;entryDx=0;entryDy=0;entryPerimeter=0;" edge="1" parent="1" source="AAILQi1pVG8GvYkLA8IR-78" target="AAILQi1pVG8GvYkLA8IR-57">
          <mxGeometry relative="1" as="geometry">
            <mxPoint x="805" y="890" as="targetPoint" />
          </mxGeometry>
        </mxCell>
        <mxCell id="AAILQi1pVG8GvYkLA8IR-78" value="Finalizar Atendimento" style="rounded=1;whiteSpace=wrap;html=1;arcSize=40;fontColor=#000000;fillColor=#ffffc0;strokeColor=#ff0000;" vertex="1" parent="1">
          <mxGeometry x="745" y="770" width="120" height="40" as="geometry" />
        </mxCell>
        <mxCell id="AAILQi1pVG8GvYkLA8IR-79" value="" style="edgeStyle=none;rounded=0;orthogonalLoop=1;jettySize=auto;html=1;" edge="1" parent="1" source="AAILQi1pVG8GvYkLA8IR-69" target="AAILQi1pVG8GvYkLA8IR-78">
          <mxGeometry relative="1" as="geometry" />
        </mxCell>
        <mxCell id="AAILQi1pVG8GvYkLA8IR-85" value="Não" style="edgeStyle=none;rounded=0;orthogonalLoop=1;jettySize=auto;html=1;entryX=1;entryY=0.5;entryDx=0;entryDy=0;exitX=0.5;exitY=0;exitDx=0;exitDy=0;" edge="1" parent="1" source="AAILQi1pVG8GvYkLA8IR-80" target="AAILQi1pVG8GvYkLA8IR-73">
          <mxGeometry x="0.0532" y="2" relative="1" as="geometry">
            <mxPoint x="930" y="585" as="targetPoint" />
            <Array as="points">
              <mxPoint x="978" y="480" />
            </Array>
            <mxPoint x="867.5" y="585" as="sourcePoint" />
            <mxPoint as="offset" />
          </mxGeometry>
        </mxCell>
      </root>
    </mxGraphModel>
  </diagram>
</mxfile>
